<svg width="255" height="79" viewBox="0 0 255 79" fill="none" xmlns="http://www.w3.org/2000/svg">
<g clip-path="url(#clip0_1467_6296)">
<path d="M79.093 13.7254H76.0311L68.9889 30.4124L62.2529 13.7254H59.2676L67.3049 34.0101L64.0134 42.0474H66.9987L79.093 13.7254ZM100.602 34.699V13.7254H97.7702V25.2838C97.7702 29.3407 95.3973 32.4791 91.3403 32.4791C87.2069 32.4791 84.987 29.3407 84.987 25.6665V13.7254H82.1548V25.6665C82.1548 30.4124 83.7623 31.6371 84.4512 32.326C85.9821 33.857 87.8192 35.2348 91.0342 35.2348C94.0195 35.2348 96.4689 34.0866 97.9233 31.4075V34.7755L100.602 34.699ZM124.102 13.7254H121.04L113.845 31.1013L106.573 13.7254H103.511L112.314 34.699H115.299L124.102 13.7254ZM148.214 34.699V13.7254H145.535V17.8588C145.458 17.6292 143.468 13.2661 137.268 13.2661C130.915 13.2661 126.092 18.3181 126.092 24.1356C126.092 27.8098 127.853 30.3358 128.082 30.642C131.297 34.2397 134.818 35.2348 137.421 35.2348C140.636 35.2348 144.004 33.7039 145.535 30.642V34.699H148.214ZM145.535 24.2887C145.535 28.5753 141.937 32.4791 137.421 32.4791C132.905 32.4791 128.924 28.8815 128.924 24.3653C128.924 19.7725 132.675 16.0217 137.344 16.0217C142.014 16.0217 145.535 19.696 145.535 24.2887ZM184.573 34.699V22.6047C184.573 20.2318 184.191 18.0119 182.43 16.3279C180.669 14.6439 178.603 13.2661 176.077 13.2661C173.091 13.2661 170.03 14.9501 169.035 17.2465C167.58 14.8736 164.824 13.2661 161.763 13.2661C157.323 13.2661 156.251 16.481 156.175 16.481C156.175 16.481 156.098 16.1748 156.098 15.7921C156.098 15.0266 156.175 13.7254 156.175 13.7254H153.496V34.699H156.328V21.7627C156.328 18.3181 158.624 16.0217 161.916 16.0217C165.131 16.0217 167.58 18.6243 167.58 22.1454V34.699H170.412V21.6861C170.412 18.165 172.938 16.0217 176 16.0217C179.751 16.0217 181.741 19.1601 181.741 22.4516V34.699H184.573ZM207.614 13.7254H204.552L197.51 30.4124L190.774 13.7254H187.788L195.826 34.0101L192.534 42.0474H195.519L207.614 13.7254ZM220.78 16.3279V13.7254H215.881V6.37695H213.048V13.7254H208.685V16.3279H213.048V34.699H215.881V16.3279H220.78ZM232.721 16.0983V13.2661C229.659 13.2661 227.669 14.7205 226.674 16.7872V13.7254H223.995V34.699H226.827V22.0689C226.827 18.6243 229.506 16.2514 232.721 16.0983ZM237.503 34.699V29.8766H234.675V34.699H237.503Z" fill="white"/>
<path d="M77.9559 59.7306C77.9559 58.9066 77.5867 58.1682 76.6682 57.7089C76.0873 57.4342 75.5065 57.2812 74.8941 57.038C74.4033 56.8534 74.1286 56.3941 74.1286 55.9033C74.1286 55.2009 74.7095 54.7416 75.3219 54.7416C76.0243 54.7416 76.6096 55.2009 76.6096 55.9033H77.7398C77.7398 54.6786 76.6682 53.6385 75.4119 53.6385C74.0656 53.6385 72.994 54.6786 72.994 55.9979C72.994 56.8849 73.4847 57.4658 74.0071 57.835C74.4033 58.0781 75.4434 58.3843 75.6911 58.4744C76.7312 58.8436 76.8213 59.546 76.8213 59.9152C76.8213 60.7708 76.1774 61.3246 75.3534 61.3246C74.4934 61.3246 73.8225 60.6177 73.8225 59.7306H72.6878C72.6878 59.7621 72.6562 59.8252 72.6562 59.8522C72.6562 61.3561 73.9755 62.4277 75.2318 62.4277C76.8528 62.4277 77.9559 61.2615 77.9559 59.7306ZM86.0698 62.2116L82.6072 58.0151L85.8537 53.8231H84.3858L80.5585 58.8436V50.8828H79.4238V62.2116H80.5585V60.6177L81.8733 58.9066L84.5974 62.2116H86.0698ZM88.3662 52.81V50.8828H87.2315V52.81H88.3662ZM88.3662 62.2116V53.8231H87.2315V62.2116H88.3662ZM91.5811 62.2116V50.8828H90.4464V62.2116H91.5811ZM94.796 62.2116V50.8828H93.6614V62.2116H94.796ZM118.525 59.7621H117.269C116.414 60.9238 115.495 61.3246 114.329 61.3246C112.37 61.3246 110.992 59.7621 110.992 57.9881C110.992 56.1195 112.555 54.7416 114.423 54.7416C115.432 54.7416 116.657 55.291 117.269 56.3626H118.525C117.85 54.6471 116.197 53.6385 114.392 53.6385C111.942 53.6385 109.858 55.5656 109.858 58.0151C109.858 60.4961 111.879 62.4277 114.45 62.4277C116.229 62.4277 117.791 61.3831 118.525 59.7621ZM128.719 57.9881C128.719 55.6602 126.671 53.6385 124.374 53.6385C121.952 53.6385 119.962 55.5971 119.962 58.0781C119.962 60.5276 122.046 62.4277 124.374 62.4277C126.851 62.4277 128.719 60.2845 128.719 57.9881ZM127.589 57.9566C127.589 59.8252 126.211 61.3246 124.374 61.3246C122.596 61.3246 121.096 59.8837 121.096 58.0781C121.096 56.2725 122.506 54.7416 124.343 54.7416C126.085 54.7416 127.589 56.151 127.589 57.9566ZM137.815 62.2116V57.4658C137.815 56.3041 137.414 55.3225 136.68 54.6786C136.009 54.0347 135.091 53.6385 134.078 53.6385C132.794 53.6385 131.997 54.3409 131.475 55.0793V53.8231H130.403V62.2116H131.538V57.4973C131.538 56.5787 131.75 55.9033 132.241 55.4441C132.7 55.0163 133.312 54.7416 134.046 54.7416C135.672 54.7416 136.68 55.9033 136.68 57.5558V62.2116H137.815ZM147.212 62.2116V57.4658C147.212 56.3041 146.816 55.3225 146.082 54.6786C145.406 54.0347 144.488 53.6385 143.479 53.6385C142.192 53.6385 141.395 54.3409 140.877 55.0793V53.8231H139.805V62.2116H140.935V57.4973C140.935 56.5787 141.151 55.9033 141.642 55.4441C142.101 55.0163 142.714 54.7416 143.448 54.7416C145.069 54.7416 146.082 55.9033 146.082 57.5558V62.2116H147.212ZM157.595 58.4158C157.564 57.2226 157.348 56.0879 156.492 55.1379C155.664 54.2193 154.533 53.6385 153.246 53.6385C150.765 53.6385 148.869 55.6287 148.869 58.0466C148.869 60.5276 150.859 62.4277 153.277 62.4277C155.083 62.4277 156.735 61.1715 157.348 59.4875H156.154C155.695 60.6177 154.349 61.3246 153.183 61.3246C151.499 61.3246 150.031 59.8837 150.031 58.4158H157.595ZM156.461 57.4027H149.999C150.305 55.9033 151.593 54.7416 153.246 54.7416C154.777 54.7416 156.186 55.9033 156.461 57.4027ZM167.636 59.7621H166.38C165.525 60.9238 164.606 61.3246 163.44 61.3246C161.481 61.3246 160.103 59.7621 160.103 57.9881C160.103 56.1195 161.666 54.7416 163.534 54.7416C164.543 54.7416 165.768 55.291 166.38 56.3626H167.636C166.961 54.6471 165.308 53.6385 163.503 53.6385C161.053 53.6385 158.973 55.5656 158.973 58.0151C158.973 60.4961 160.99 62.4277 163.566 62.4277C165.34 62.4277 166.902 61.3831 167.636 59.7621ZM173.454 54.8632V53.8231H171.495V50.8828H170.36V53.8231H168.618V54.8632H170.36V62.2116H171.495V54.8632H173.454ZM192.099 54.8632V53.8231H190.141V50.8828H189.006V53.8231H187.264V54.8632H189.006V62.2116H190.141V54.8632H192.099ZM200.794 62.2116V57.4973C200.794 55.2324 199.142 53.6385 197.061 53.6385C195.958 53.6385 195.008 54.1293 194.517 55.0478V50.8828H193.387V62.2116H194.517V57.3442C194.517 55.5386 195.805 54.7416 197.03 54.7416C198.561 54.7416 199.664 55.8133 199.664 57.5558V62.2116H200.794ZM206.278 54.7731V53.6385C205.054 53.6385 204.257 54.2193 203.856 55.0478V53.8231H202.784V62.2116H203.919V57.1596C203.919 55.7818 204.991 54.8317 206.278 54.7731ZM208.728 52.81V50.8828H207.593V52.81H208.728ZM208.728 62.2116V53.8231H207.593V62.2116H208.728ZM218.188 53.8231H216.963L214.086 60.7708L211.177 53.8231H209.953L213.474 62.2116H214.667L218.188 53.8231ZM227.711 58.4158C227.68 57.2226 227.464 56.0879 226.608 55.1379C225.78 54.2193 224.65 53.6385 223.362 53.6385C220.881 53.6385 218.985 55.6287 218.985 58.0466C218.985 60.5276 220.975 62.4277 223.393 62.4277C225.199 62.4277 226.851 61.1715 227.464 59.4875H226.271C225.811 60.6177 224.465 61.3246 223.299 61.3246C221.615 61.3246 220.147 59.8837 220.147 58.4158H227.711ZM226.577 57.4027H220.115C220.421 55.9033 221.709 54.7416 223.362 54.7416C224.893 54.7416 226.302 55.9033 226.577 57.4027Z" fill="white"/>
<path d="M46.0876 21.2547V28.6196C44.5814 26.3548 42.1747 24.7395 39.3821 24.288L46.0876 21.2547ZM37.7871 42.4217C33.2104 42.4217 29.487 38.6982 29.487 34.1214C29.487 29.5447 33.2104 25.8212 37.7871 25.8212C42.3641 25.8212 46.0876 29.5447 46.0876 34.1214C46.0876 38.6982 42.3641 42.4217 37.7871 42.4217ZM46.0876 44.2294L28.6558 51.797L11.2241 44.2293V39.6234C13.0106 42.3094 16.0635 44.0841 19.5242 44.0841C21.2984 44.0841 22.9642 43.6158 24.4087 42.7996L28.6557 48.4744L32.9029 42.7996C34.3473 43.6158 36.0131 44.0841 37.7871 44.0841C41.248 44.0841 44.3011 42.3094 46.0876 39.6234V44.2294ZM46.0876 50.446L21.6987 61.0338L16.7308 58.7864L46.0876 46.0417V50.446ZM42.3741 57.9751L28.6557 64.181L23.7433 61.9587L46.0861 52.259C46.0707 54.7193 44.618 56.96 42.3741 57.9751ZM11.2255 52.2591L19.4084 55.8115L14.6983 57.8563C12.5923 56.7937 11.2404 54.63 11.2255 52.2591ZM11.2241 46.0418L26.5683 52.7032L21.4959 54.9053L11.2241 50.446V46.0418ZM19.5242 25.8212C24.1011 25.8212 27.8245 29.5447 27.8245 34.1214C27.8245 38.6982 24.1011 42.4217 19.5242 42.4217C14.9475 42.4217 11.2241 38.6982 11.2241 34.1214C11.2241 29.5447 14.9475 25.8212 19.5242 25.8212ZM11.2241 21.2547L17.9293 24.288C15.137 24.7395 12.7303 26.3548 11.2241 28.6196V21.2547ZM31.5268 41.8638L28.6557 45.6998L25.7847 41.8638C27.0198 40.8632 28.0108 39.5741 28.6557 38.0995C29.3007 39.5741 30.2917 40.8632 31.5268 41.8638ZM33.7026 25.0382C31.4529 26.0538 29.6457 27.8798 28.6557 30.1433C27.6657 27.8798 25.8585 26.0538 23.6088 25.0382L23.6109 25.0336L15.9854 21.5839V17.6088L28.6557 22.6992L41.3261 17.6088V21.584L33.7006 25.0336L33.7026 25.0382ZM4.85612 11.3457L28.6557 1.78387L52.4555 11.3457L28.6557 20.9075L4.85612 11.3457ZM42.9885 16.9409L56.9149 11.3457L28.6557 -0.0078125L1.79522 10.7838V17.5282L0.130859 22.433L2.56587 25.1929L5.00097 22.433L3.45765 17.8851V12.5755L14.323 16.9408V20.8319L9.56157 18.6779V52.2198C9.56157 55.3471 11.4028 58.2007 14.2522 59.4898L28.6557 66.0059L43.0592 59.4898C45.9087 58.2007 47.75 55.347 47.75 52.2198V18.6779L42.9885 20.832V16.9409Z" fill="white"/>
<path d="M19.5249 37.1953C21.2224 37.1953 22.5986 35.8191 22.5986 34.1215C22.5986 32.4241 21.2224 31.0479 19.5249 31.0479C19.1375 31.0479 18.7683 31.1226 18.4271 31.2533C18.8723 31.4171 19.1917 31.8412 19.1917 32.3433C19.1917 32.9867 18.6701 33.5082 18.0267 33.5082C17.4562 33.5082 16.9834 33.0974 16.8833 32.5559C16.6105 33.0149 16.4512 33.549 16.4512 34.1215C16.4512 35.8191 17.8273 37.1953 19.5249 37.1953Z" fill="white"/>
<path d="M37.7866 31.0479C37.3993 31.0479 37.0301 31.1225 36.6888 31.2533C37.1341 31.417 37.4535 31.8412 37.4535 32.3432C37.4535 32.9866 36.9319 33.5082 36.2885 33.5082C35.7179 33.5082 35.2451 33.0974 35.145 32.5559C34.8723 33.0149 34.7129 33.549 34.7129 34.1215C34.7129 35.819 36.089 37.1953 37.7866 37.1953C39.4842 37.1953 40.8603 35.819 40.8603 34.1215C40.8603 32.424 39.4842 31.0479 37.7866 31.0479Z" fill="white"/>
</g>
<defs>
<clipPath id="clip0_1467_6296">
<rect width="255" height="79" fill="white"/>
</clipPath>
</defs>
</svg>
